<?xml version="1.0" encoding="UTF-8" standalone="no"?>
<svg
   version="1.1"
   id="Layer_1"
   x="0px"
   y="0px"
   viewBox="0 0 100 150"
   enable-background="new 0 0 365 560"
   xml:space="preserve"
   width="100"
   height="150"
   xmlns="http://www.w3.org/2000/svg"
   xmlns:svg="http://www.w3.org/2000/svg">&#10;   <defs
   id="defs9" />&#10;&#10;   &#10;&#10;   <path
   fill="#00AEEF"
   d="m 49.965878,143.84968 c 0,0 46.606418,-69.379144 46.606418,-92.179189 C 96.572296,18.115249 72.94376,3.4791258 49.965878,3.4275422 26.988004,3.4791238 3.4277045,18.072993 3.4277045,51.628239 c 0,22.800036 46.5381735,92.221441 46.5381735,92.221441 z"
   id="path2"
   style="fill:#aaaaaa;fill-opacity:1;stroke:#839617;stroke-width:6.85524;stroke-miterlimit:4;stroke-dasharray:none;stroke-opacity:1" /><path
   id="path2-3"
   d="m 66.504998,42.976618 h -9.431425 v -3.536972 c 0,-0.650803 -0.528161,-1.178992 -1.178929,-1.178992 h -2.35786 V 26.470747 h 1.17893 c 0.690853,0.0024 1.236699,-0.588314 1.17893,-1.276846 L 55.009266,14.570017 c -0.32419,-3.852943 -4.69685,-5.9102812 -7.871703,-3.703208 -1.228443,0.854766 -2.012429,2.211785 -2.137398,3.703208 l -0.894806,10.623884 c -0.05778,0.688532 0.488077,1.279206 1.178929,1.276846 h 1.178926 v 11.789907 h -2.357855 c -0.650769,0 -1.17893,0.528189 -1.17893,1.178992 v 3.536972 h -9.431425 c -14.520862,0 -23.5962513,15.719486 -16.335233,28.295768 3.369379,5.836001 9.596478,9.431927 16.335233,9.431927 h 33.009994 c 14.520858,0 23.596254,-15.719475 16.335228,-28.295771 -3.369374,-5.836005 -9.596473,-9.431924 -16.335228,-9.431924 z M 54.715714,64.198446 h -21.22071 c -1.815552,0 -2.949678,-1.965373 -2.041905,-3.536969 0.420878,-0.729797 1.19897,-1.178994 2.041905,-1.178994 h 21.22071 z m 0,-11.789904 h -21.22071 c -7.259839,0 -11.797537,7.860333 -8.167617,14.14788 1.68469,2.918002 4.798242,4.715964 8.167617,4.715964 h 21.22071 v 2.357987 h -21.22071 c -9.075389,0 -14.747217,-9.824529 -10.209521,-17.684859 2.105567,-3.647798 5.997211,-5.894951 10.209521,-5.894951 h 21.22071 z m 7.073568,7.073941 h 4.715716 c 1.815552,0 2.949678,1.965374 2.041905,3.536969 -0.420878,0.729798 -1.19897,1.178994 -2.041905,1.178994 h -4.715716 z m 0,11.789903 h 4.715716 c 7.259839,0 11.797534,-7.860318 8.167616,-14.147878 -1.684689,-2.918006 -4.79824,-4.715966 -8.167616,-4.715966 h -4.715716 v -2.357979 h 4.715716 c 9.075389,0 14.747211,9.824523 10.209518,17.684852 -2.105564,3.6478 -5.997208,5.894958 -10.209518,5.894958 h -4.715716 z"
   style="fill:#feffff;fill-opacity:1;stroke-width:1.17896" />&#10;</svg>
