<?xml version="1.0" encoding="UTF-8" standalone="no"?>
<svg version="1.1" id="Layer_1" x="0px" y="0px" viewBox="0 0 100 150" enable-background="new 0 0 365 560" xml:space="preserve" width="100" height="150"
   xmlns="http://www.w3.org/2000/svg"
   xmlns:svg="http://www.w3.org/2000/svg">
   <defs id="defs9" />

   <g id="g833" transform="scale(0.28506271,0.28476943)">
      <g id="g4" transform="matrix(0.99028811,0,0,0.95747586,-5.7271643,-5.6549788)">
         <path fill="#00AEEF" d="m 182.9,551.7 c 0,0.1 0.2,0.3 0.2,0.3 0,0 175.2,-269 175.2,-357.4 C 358.3,64.5 269.5,7.9 182.9,7.7 96.3,7.9 7.5,64.5 7.5,194.6 7.5,283 182.8,552 182.8,552 Z" id="path2" style="fill:#b8cc24;fill-opacity:1;stroke:#839617;stroke-width:3.50981;stroke-miterlimit:4;stroke-dasharray:none;stroke-opacity:1" />
      </g>
   </g>

   <path id="path2-3" d="M 69.725619,41.990858 H 58.45384 v -4.227142 c 0,-0.777794 -0.631221,-1.409048 -1.408974,-1.409048 H 54.226917 V 22.264195 h 1.408974 c 0.82566,0.0029 1.478017,-0.703112 1.408975,-1.525997 L 55.986724,8.0412757 c -0.387449,-4.604768 -5.613346,-7.06355495 -9.407709,-4.425815 -1.468149,1.021556 -2.405114,2.64337 -2.554468,4.425815 l -1.06941,12.6969223 c -0.06905,0.822885 0.583315,1.528818 1.408974,1.525997 h 1.408969 v 14.090473 h -2.817943 c -0.777754,0 -1.408975,0.631254 -1.408975,1.409048 v 4.227142 H 30.274383 c -17.354319,0 -28.2005894,18.786831 -19.522728,33.817123 4.026846,6.97478 11.469039,11.27238 19.522728,11.27238 h 39.451236 c 17.354314,0 28.200593,-18.786818 19.522722,-33.817127 C 85.221501,46.288449 77.779308,41.990858 69.725619,41.990858 Z M 55.635891,67.353703 H 30.274383 c -2.169821,0 -3.525249,-2.348876 -2.440342,-4.227138 0.503004,-0.872202 1.432925,-1.409051 2.440342,-1.409051 h 25.361508 z m 0,-14.090469 H 30.274383 c -8.676452,0 -14.099592,9.39412 -9.761365,16.908557 2.013424,3.487392 5.734523,5.63619 9.761365,5.63619 h 25.361508 v 2.818101 H 30.274383 c -10.846271,0 -17.624843,-11.74159 -12.201706,-21.135706 2.516427,-4.359593 7.167447,-7.045234 12.201706,-7.045234 h 25.361508 z m 8.453834,8.45428 h 5.635894 c 2.169821,0 3.525249,2.348877 2.440342,4.227138 -0.503004,0.872203 -1.432925,1.409051 -2.440342,1.409051 h -5.635894 z m 0,14.090467 h 5.635894 c 8.676452,0 14.099588,-9.394102 9.761364,-16.908554 -2.013423,-3.487397 -5.734521,-5.636193 -9.761364,-5.636193 h -5.635894 v -2.818092 h 5.635894 c 10.84627,0 17.624835,11.741583 12.201702,21.135699 -2.516423,4.359595 -7.167443,7.045241 -12.201702,7.045241 h -5.635894 z" style="fill:#feffff;fill-opacity:1;stroke-width:1.40901" />
</svg>
