<?xml version="1.0" encoding="UTF-8" standalone="no"?>
<svg version="1.1" id="Layer_1" x="0px" y="0px" viewBox="0 0 100 150" enable-background="new 0 0 365 560" xml:space="preserve" width="100" height="150"
   xmlns="http://www.w3.org/2000/svg"
   xmlns:svg="http://www.w3.org/2000/svg">
   <defs id="defs9" />

   <g id="g833" transform="scale(0.28506271,0.28476943)">
      <g id="g4" transform="matrix(0.99028811,0,0,0.95747586,-5.7271643,-5.6549788)">
         <path fill="#00AEEF" d="m 182.9,551.7 c 0,0.1 0.2,0.3 0.2,0.3 0,0 175.2,-269 175.2,-357.4 C 358.3,64.5 269.5,7.9 182.9,7.7 96.3,7.9 7.5,64.5 7.5,194.6 7.5,283 182.8,552 182.8,552 Z" id="path2" style="fill:#b8cc24;fill-opacity:1;stroke:#839617;stroke-width:3.50981;stroke-miterlimit:4;stroke-dasharray:none;stroke-opacity:1" />
      </g>
   </g>

   <g transform="matrix(5.6211952,5.6268413,-6.0602129,6.0541168,15.18896,24.006888)" id="g97">
      <g id="g105" style="fill:#ffffff;fill-opacity:1">
         <path id="rental-bicycle" transform="translate(-1.5520395,-2.8104498)" d="M 2.744,0 C 2.034,0 1.374,0.412 1,1 H 2.907 L 3.53,2 2.907,3 H 1.002 C 1.376,3.588 2.035,3.999 2.744,4 3.502,4 4.156,3.596 4.512,3 H 9.178 C 9.533,3.596 10.189,4 10.947,4 12.081,4 13,3.105 13,2 13,0.895 12.081,0 10.947,0 10.189,0 9.533,0.404 9.178,1 H 4.512 C 4.156,0.404 3.502,0 2.744,0 Z m 7.578,1 h 1.25 l 0.623,1 -0.623,1 h -1.25 L 9.699,2 Z" style="stroke-width:0.997902;fill:#ffffff;fill-opacity:1" />
      </g>
   </g>
</svg>
