<?xml version="1.0" encoding="UTF-8" standalone="no"?>
<svg
   version="1.1"
   id="Layer_1"
   x="0px"
   y="0px"
   viewBox="0 0 100.00002 149.99992"
   enable-background="new 0 0 365 560"
   xml:space="preserve"
   width="100.00002"
   height="149.99992"
   xmlns="http://www.w3.org/2000/svg"
   xmlns:svg="http://www.w3.org/2000/svg">&#10;   <defs
   id="defs9" />&#10;   <g
   id="g833"
   transform="matrix(0.27360312,0,0,0.27546574,117.7678,2.4697842)"
   style="stroke-width:0.637446;stroke-miterlimit:4;stroke-dasharray:none">&#10;      <path
   fill="#00AEEF"
   d="m -247.81106,513.26693 c 0,0 170.384429,-251.85323 170.384429,-334.61969 C -77.426631,56.838344 -163.80818,3.7077458 -247.81106,3.5204919 -331.81391,3.7077458 -417.946,56.684946 -417.946,178.49386 c 0,82.76641 170.13494,334.77307 170.13494,334.77307 z"
   id="path2"
   style="fill:#aaaaaa;fill-opacity:1;stroke:#839617;stroke-width:24.9732;stroke-miterlimit:4;stroke-dasharray:none;stroke-opacity:1" />&#10;   <g
   transform="matrix(2.5009958,0,0,2.4840848,-388.66698,-2299.3619)"
   id="g2"
   style="fill:#ffffff;stroke:#ffffff;stroke-width:3.55291;stroke-dasharray:none"><path
     style="color:#000000;text-indent:0;text-transform:none;direction:ltr;baseline-shift:baseline;fill:#ffffff;stroke:#ffffff;stroke-width:3.55291;stroke-dasharray:none;enable-background:accumulate"
     d="m 8.0106183,962.36227 c -1.1046,0 -2,0.89543 -2,2 0,1.10457 0.8954,2 2,2 H 18.385618 l 10.5312,49.75003 c 0.2555,1.2291 1.0765,2.263 2.0938,2.25 h 49.999998 c 1.0566,0.015 2.0285,-0.9432 2.0285,-2 0,-1.0567 -0.9719,-2.0149 -2.0285,-2 H 32.635618 l -1.6875,-8 h 54.062498 c 0.8955,-0.01 1.7416,-0.6887 1.9375,-1.5625 l 7,-30.00002 c 0.2601,-1.16072 -0.748,-2.429 -1.9375,-2.4375 H 23.760618 l -1.7812,-8.43751 c -0.1982,-0.88398 -1.0629,-1.57023 -1.9688,-1.5625 z m 16.5937997,14.00001 h 17.7187 l 1.8437,11 h -17.2187 z m 21.75,0 h 21.3124 l -1.8437,11 h -17.625 z m 25.343698,0 h 17.8125 l -2.5625,11 H 69.854418 Z m -43.906298,15 h 17.0313 l 1.8437,11.00002 h -16.5624 z m 21.0938,0 h 16.25 l -1.8125,11.00002 h -12.625 z m 20.3125,0 h 16.812498 l -2.5938,11.00002 H 67.354418 Z m -27.1875,32.99992 c -4.9468,0 -9,4.0531 -9,9 0,4.9469 4.0532,9 9,9 4.9469,0 9,-4.0531 9,-9 0,-4.9469 -4.0531,-9 -9,-9 z m 28,0 c -4.9468,0 -9,4.0531 -9,9 0,4.9469 4.0532,9 9,9 4.946898,0 8.999998,-4.0531 8.999998,-9 0,-4.9469 -4.0531,-9 -8.999998,-9 z m -28,4 c 2.7851,0 5,2.2149 5,5 0,2.7851 -2.2149,5 -5,5 -2.785,0 -5,-2.2149 -5,-5 0,-2.7851 2.215,-5 5,-5 z m 28,0 c 2.785098,0 4.999998,2.2149 4.999998,5 0,2.7851 -2.2149,5 -4.999998,5 -2.785,0 -5,-2.2149 -5,-5 0,-2.7851 2.215,-5 5,-5 z"
     fill="#000000"
     fill-opacity="1"
     stroke="none"
     marker="none"
     visibility="visible"
     display="inline"
     overflow="visible"
     id="path1-6" /></g></g>&#10;</svg>
