<?xml version="1.0" encoding="UTF-8" standalone="no"?>
<svg
   version="1.1"
   id="Layer_1"
   x="0px"
   y="0px"
   viewBox="0 0 100 150"
   enable-background="new 0 0 365 560"
   xml:space="preserve"
   width="100"
   height="150"
   xmlns="http://www.w3.org/2000/svg"
   xmlns:svg="http://www.w3.org/2000/svg">&#10;   <defs
   id="defs9" />&#10;&#10;   &#10;&#10;   <path
   fill="#00AEEF"
   d="m 49.977431,143.84567 c 0,0 46.617711,-69.376938 46.617711,-92.176262 0,-33.554177 -23.634261,-48.1898374 -46.617711,-48.2414194 C 26.993989,3.4795706 3.4279799,18.072975 3.4279799,51.627157 c 0,22.799311 46.5494511,92.218513 46.5494511,92.218513 z"
   id="path2"
   style="fill:#aaaaaa;fill-opacity:1;stroke:#839617;stroke-width:6.85596;stroke-miterlimit:4;stroke-dasharray:none;stroke-opacity:1" /><g
   transform="matrix(4.7923081,4.7971216,-5.1665894,5.1613923,20.333668,27.926766)"
   id="g97">&#10;      <g
   id="g105"
   style="fill:#ffffff;fill-opacity:1">&#10;         <path
   id="rental-bicycle"
   transform="translate(-1.5520395,-2.8104498)"
   d="M 2.744,0 C 2.034,0 1.374,0.412 1,1 H 2.907 L 3.53,2 2.907,3 H 1.002 C 1.376,3.588 2.035,3.999 2.744,4 3.502,4 4.156,3.596 4.512,3 H 9.178 C 9.533,3.596 10.189,4 10.947,4 12.081,4 13,3.105 13,2 13,0.895 12.081,0 10.947,0 10.189,0 9.533,0.404 9.178,1 H 4.512 C 4.156,0.404 3.502,0 2.744,0 Z m 7.578,1 h 1.25 l 0.623,1 -0.623,1 h -1.25 L 9.699,2 Z"
   style="fill:#ffffff;fill-opacity:1;stroke-width:0.997902" />&#10;      </g>&#10;   </g>&#10;</svg>
