<?xml version="1.0" encoding="UTF-8" standalone="no"?>
<svg version="1.1" id="Layer_1" x="0px" y="0px" viewBox="0 0 100 150" enable-background="new 0 0 365 560" xml:space="preserve" width="100" height="150"
   xmlns="http://www.w3.org/2000/svg"
   xmlns:svg="http://www.w3.org/2000/svg">

   <defs id="defs9" />

   <g id="g833" transform="scale(0.28506271,0.28476943)">
      <g id="g4" transform="matrix(0.99028811,0,0,0.95747586,-5.7271643,-5.6549788)">
         <path fill="#00AEEF" d="m 182.9,551.7 c 0,0.1 0.2,0.3 0.2,0.3 0,0 175.2,-269 175.2,-357.4 C 358.3,64.5 269.5,7.9 182.9,7.7 96.3,7.9 7.5,64.5 7.5,194.6 7.5,283 182.8,552 182.8,552 Z" id="path2" style="fill:#aaaaaa;fill-opacity:1;stroke:#4a0d10;stroke-width:3.50981;stroke-miterlimit:4;stroke-dasharray:none;stroke-opacity:1" />
      </g>
   </g>

   <g id="Gruppe_4608" data-name="Gruppe 4608" transform="matrix(1.1405775,0,0,1.1405775,-1075.7279,-322.48227)" style="fill:#ffffff;fill-opacity:1">
      <path id="Pfad_3056" data-name="Pfad 3056" d="M 7.035,14.07 A 12.078,12.078 0 0 1 -5.029,2.006 12.064,12.064 0 0 1 19.099,2.006 12.078,12.078 0 0 1 7.035,14.07 m 0,-20.77 a 8.7,8.7 0 1 0 8.7,8.706 8.714,8.714 0 0 0 -8.7,-8.706" transform="translate(954.363,323.43)" fill="#aaaaaa" style="fill:#ffffff;fill-opacity:1" />
      <path id="Pfad_3057" data-name="Pfad 3057" d="M 7.035,14.07 A 12.078,12.078 0 0 1 -5.029,2.006 12.064,12.064 0 0 1 19.099,2.006 12.078,12.078 0 0 1 7.035,14.07 m 0,-20.77 a 8.7,8.7 0 1 0 8.7,8.706 8.714,8.714 0 0 0 -8.7,-8.706" transform="translate(1000.717,323.43)" fill="#aaaaaa" style="fill:#ffffff;fill-opacity:1" />
      <path id="Pfad_3058" data-name="Pfad 3058" d="m 18.759,16.492 h -30.824 a 1.344,1.344 0 0 1 -1.154,-0.653 1.35,1.35 0 0 1 -0.034,-1.324 L 0.4,-11.076 a 1.342,1.342 0 0 1 1.818,-0.554 1.346,1.346 0 0 1 0.554,1.818 L -9.827,13.8 h 28.586 a 1.345,1.345 0 0 1 0,2.689" transform="translate(972.721,310.289)" fill="#aaaaaa" style="fill:#ffffff;fill-opacity:1" />
      <path id="Pfad_3059" data-name="Pfad 3059" d="M 16.062,11.37 H -1.018 A 1.345,1.345 0 0 1 -2.129,10.782 1.346,1.346 0 0 1 -2.268,9.53 l 5.35,-14.969 h -13.22 a 1.344,1.344 0 0 1 -1.343,-1.343 1.345,1.345 0 0 1 1.343,-1.346 h 15.2 a 1.343,1.343 0 0 1 1.113,0.59 1.34,1.34 0 0 1 0.137,1.25 L 0.961,8.681 h 15.1 a 1.345,1.345 0 0 1 0,2.689" transform="translate(1007.258,315.41)" fill="#aaaaaa" style="fill:#ffffff;fill-opacity:1" />
      <path id="Pfad_3060" data-name="Pfad 3060" d="M 4.43,7.249 A 1.338,1.338 0 0 1 3.3,6.631 L -0.478,0.746 v 5.16 A 1.344,1.344 0 0 1 -1.821,7.249 1.345,1.345 0 0 1 -3.167,5.906 v -9.744 a 1.347,1.347 0 0 1 0.967,-1.291 1.347,1.347 0 0 1 1.509,0.564 l 3.778,5.887 v -5.16 A 1.344,1.344 0 0 1 4.43,-5.182 1.344,1.344 0 0 1 5.774,-3.838 V 5.906 A 1.344,1.344 0 0 1 4.81,7.194 1.306,1.306 0 0 1 4.431,7.249" transform="translate(987.049,312.441)" fill="#aaaaaa" style="fill:#ffffff;fill-opacity:1" />
      <path id="Pfad_3061" data-name="Pfad 3061" d="M 0.783,7.249 A 1.344,1.344 0 0 1 -0.56,5.906 v -9.745 a 1.344,1.344 0 0 1 1.343,-1.343 1.344,1.344 0 0 1 1.344,1.343 V 5.906 A 1.344,1.344 0 0 1 0.783,7.249" transform="translate(978.805,312.441)" fill="#aaaaaa" style="fill:#ffffff;fill-opacity:1" />
   </g>
</svg>
