<?xml version="1.0" encoding="UTF-8" standalone="no"?>
<svg version="1.1" id="Layer_1" x="0px" y="0px" viewBox="0 0 100 150" enable-background="new 0 0 365 560" xml:space="preserve" width="100" height="150"
   xmlns="http://www.w3.org/2000/svg"
xmlns:svg="http://www.w3.org/2000/svg">
<defs id="defs9" />
<g id="g833" transform="scale(0.28506271,0.28476943)">
   <g id="g4" transform="matrix(0.99028811,0,0,0.95747586,-5.7271643,-5.6549788)">
      <path fill="#00AEEF" d="m 182.9,551.7 c 0,0.1 0.2,0.3 0.2,0.3 0,0 175.2,-269 175.2,-357.4 C 358.3,64.5 269.5,7.9 182.9,7.7 96.3,7.9 7.5,64.5 7.5,194.6 7.5,283 182.8,552 182.8,552 Z" id="path2" style="fill:#aaaaaa;fill-opacity:1;stroke:#002d5f;stroke-width:3.50981;stroke-miterlimit:4;stroke-dasharray:none;stroke-opacity:1" />
   </g>
   <g id="g898" transform="matrix(0.90027019,0,0,0.90027019,-115.19433,-89.192164)" style="fill:#ffffff;fill-opacity:1">
      <path class="st1" d="m 190,262.5 c 2.6,5.6 16.7,29.4 63.9,38.5 4.7,0.9 29.9,3.8 48.3,-6.5 6.2,-3.4 -8.5,-3.3 -15.9,-31.1 -2.7,-10.2 -3.2,-25 -19.2,-38.9 -16.5,-14.3 -42.6,-20.8 -69.2,-20.2 -12.8,0.3 -37,1.9 -38.7,5.3 -2.3,4.7 13.4,10.4 18.1,16 3.5,4.1 -1.2,6.4 -0.5,9.9 1.3,6.3 11.7,11.3 12.8,13.8 2.4,5.5 -3.6,4.6 0.4,13.2" id="path26" style="fill:#ffffff;fill-opacity:1" />
      <path class="st1" d="m 421.6,362.7 c -23.9,0 -43.5,-20.7 -43.5,-46.3 0,-26.1 19.6,-47.3 43.5,-47.3 24.1,0 43.7,21.2 43.7,47.3 0,25.6 -19.6,46.3 -43.7,46.3 m 0,-112.6 c -36.7,0 -65.1,29.7 -65.1,66.3 0,36.1 28.4,65.3 65.1,65.3 36.9,0 65,-29.2 65,-65.3 0,-36.6 -28.1,-66.3 -65,-66.3" id="path28" style="fill:#ffffff;fill-opacity:1" />
      <path class="st1" d="m 413.8,223.8 c 0,-13 -17,-22.3 -24.3,-25.2 -5.4,-2.2 -11.7,-0.6 -14.1,4.5 -2.1,4.5 1.3,10.2 7.5,12.5 6.4,2.3 9.4,5.7 8.6,8.2 -0.9,3 -8.9,4 -23.2,11.2 -7.4,3.7 -14.2,9.4 -20.3,16.3 -6.5,6.9 -12.9,19.2 -16.8,26.6 -13.6,26.1 -39.7,34 -44.2,34.7 0,0 0.1,1.1 0.1,3.9 -0.1,25.6 -19.6,46.3 -43.7,46.3 -23.9,0 -43.5,-20.7 -43.5,-46.3 0,-7.9 1.8,-15.4 5,-22 -4.7,-3.4 -13.2,-10.6 -17.1,-15.2 -4,6.5 -9.5,19.8 -9.5,37.2 0,36.1 28.4,65.3 65.1,65.3 32.5,0 58.1,-22.7 63.8,-52.7 h 0.1 c 23.7,-9.7 33.6,-24 40.7,-39.3 6.3,-13.6 14.1,-30 29.1,-37.8 15,-7.9 36.7,-12.7 36.7,-28.2" id="path32" style="fill:#ffffff;fill-opacity:1" />
   </g>
</g>
</svg>