<?xml version="1.0" encoding="UTF-8" standalone="no"?>
<svg
   xmlns:dc="http://purl.org/dc/elements/1.1/"
   xmlns:cc="http://creativecommons.org/ns#"
   xmlns:rdf="http://www.w3.org/1999/02/22-rdf-syntax-ns#"
   xmlns:svg="http://www.w3.org/2000/svg"
   xmlns="http://www.w3.org/2000/svg"
   id="svg2"
   version="1.1"
   height="702.50409"
   width="1397.6976">
  <metadata
     id="metadata14">
    <rdf:RDF>
      <cc:Work
         rdf:about="">
        <dc:format>image/svg+xml</dc:format>
        <dc:type
           rdf:resource="http://purl.org/dc/dcmitype/StillImage" />
        <dc:title></dc:title>
      </cc:Work>
    </rdf:RDF>
  </metadata>
  <defs
     id="defs12" />
  <circle
     id="OuterCircle"
     cy="351.25"
     cx="351.25"
     r="350"
     style="fill:#ffffff;stroke:#000000;stroke-width:2.5px" />
  <circle
     id="RedCircle"
     style="fill:none;stroke:#cc0000;stroke-width:93.75"
     r="290"
     cy="351.25"
     cx="351.25" />
  <g
     id="g4169"
     transform="matrix(0.81184503,0,0,0.81184503,144.95631,238.58156)">
    <circle
       cy="200.55"
       cx="76.181"
       stroke-miterlimit="10"
       r="69.094002"
       id="circle3"
       style="fill:none;stroke:#000000;stroke-width:14.17300034;stroke-miterlimit:10" />
    <circle
       cy="200.55"
       cx="76.181"
       r="7.8099999"
       id="circle5" />
    <line
       y2="200.55"
       y1="54.310001"
       stroke-miterlimit="10"
       x2="190.99001"
       x1="117.99"
       id="line7"
       style="fill:none;stroke:#000000;stroke-width:11.33899975;stroke-miterlimit:10" />
    <line
       y2="200.55"
       y1="200.55"
       stroke-miterlimit="10"
       x2="393.84"
       x1="81.344002"
       id="line9"
       style="fill:none;stroke:#000000;stroke-width:11.33899975;stroke-linecap:round;stroke-miterlimit:10" />
    <line
       y2="200.55"
       y1="131.46001"
       stroke-miterlimit="10"
       x2="77.606003"
       x1="152.02"
       id="line11"
       style="fill:none;stroke:#000000;stroke-width:11.33899975;stroke-miterlimit:10" />
    <path
       stroke-miterlimit="10"
       d="M 185.28,209.81"
       id="path13"
       style="fill:none;stroke:#000000;stroke-width:11.33899975;stroke-miterlimit:10" />
    <path
       stroke-miterlimit="10"
       d="M 210.28,171.86"
       id="path15"
       style="fill:none;stroke:#000000;stroke-width:11.33899975;stroke-miterlimit:10" />
    <g
       stroke-miterlimit="10"
       id="g17"
       style="fill:none;stroke:#000000;stroke-width:11.33899975;stroke-miterlimit:10">
      <line
         x2="215.88"
         y1="238.2"
         x1="166.27"
         y2="162.89999"
         id="line19" />
      <line
         x2="227.66"
         y1="162.89999"
         x1="203.77"
         y2="162.89999"
         id="line21"
         style="stroke-linecap:round" />
      <line
         x2="178.22"
         y1="238.2"
         x1="154.32001"
         y2="238.2"
         id="line23"
         style="stroke-linecap:round" />
    </g>
    <line
       y2="54.310001"
       y1="54.310001"
       stroke-miterlimit="10"
       x2="141.05"
       x1="100.78"
       id="line25"
       style="fill:none;stroke:#000000;stroke-width:17.00799942;stroke-linecap:round;stroke-miterlimit:10" />
    <path
       d="m 502.54,195.81 -240,-0.919 c 4.875,0 4.331,-1.619 4.331,-4.75 l 0,-140 c 0,-1.565 0.647,-3.062 1.788,-4.133 1.142,-1.071 2.665,-1.625 4.237,-1.525 l 230,14.5 c 2.987,0.188 5.313,2.666 5.313,5.658 l 0,125.5 c -0.01,3.13 -2.54,5.67 -5.67,5.67 z"
       id="path27" />
    <circle
       cy="207.97"
       cx="394.62"
       stroke-miterlimit="10"
       r="62.505001"
       id="circle29"
       style="fill:#ffffff;stroke:#000000;stroke-width:14.17300034;stroke-miterlimit:10" />
    <circle
       cy="207.97"
       cx="394.62"
       r="11.31"
       id="circle31" />
    <polyline
       points="271.28 50.31 260.42 27.81 228.28 6.31"
       stroke-miterlimit="10"
       id="polyline33"
       style="fill:none;stroke:#000000;stroke-width:8.50389957;stroke-linecap:round;stroke-linejoin:round;stroke-miterlimit:10" />
    <circle
       cy="6.3099999"
       cx="228.28"
       r="6.3099999"
       id="circle35" />
  </g>
  <g
     transform="matrix(1.1826323,0,0,1.1826323,-265.46627,-53.732642)"
     id="g4210">
    <g
       transform="translate(-82.545728,23.894816)"
       id="g4217">
      <path
         style="fill:#ffffff;fill-rule:evenodd;stroke:#000000;stroke-width:2"
         d="m 846.72128,614.5573 c -11.4325,0 -21.99656,-6.09918 -27.71282,-16 -5.71624,-9.90085 -5.71624,-22.09918 0,-32 L 1123.5829,39.018968 c 5.7162,-9.90083 16.2803,-16.00001 27.7128,-16.00001 11.4325,0 21.9966,6.09918 27.7128,16.00001 L 1483.5829,566.5573 c 5.7162,9.90082 5.7162,22.09915 0,32 -5.7163,9.90081 -16.2803,16 -27.7128,16 l -609.14882,0 z"
         id="path4" />
      <path
         style="fill:#c1121c;fill-opacity:1;fill-rule:evenodd;stroke:none"
         d="m 846.72128,602.5573 c -7.14532,0 -13.74786,-3.81198 -17.32052,-10 -3.57264,-6.18804 -3.57264,-13.81198 0,-20 L 1133.9752,45.018978 c 3.5726,-6.18804 10.1752,-10.00002 17.3205,-10.00002 7.1453,0 13.7478,3.81198 17.3205,10.00002 L 1473.1906,572.5573 c 3.5726,6.18802 3.5726,13.81196 0,20 -3.5727,6.18802 -10.1752,10 -17.3205,10 l -609.14882,0 z m 69.28209,-60 235.29233,-407.53833 235.2923,407.53833 -470.58463,0 z"
         id="path6" />
      <g
         id="g4146"
         transform="matrix(0.44854585,0,0,0.44854585,984.31097,148.76183)">
        <path
           id="path347"
           style="fill:#000000;fill-rule:nonzero;stroke:none"
           d="m 602.30969,596.13118 c -22.3281,-22.31173 -51.9883,-34.61019 -83.5438,-34.61019 -15.1206,0 -29.5633,2.89457 -42.8579,8.08818 l -27.3637,-60.85522 11.0396,-17.51976 c 19.3815,3.91944 38.5001,7.72808 39.5515,7.72808 10.8182,0 19.589,-8.7668 19.589,-19.58335 0,-10.8304 -8.7708,-19.59721 -19.589,-19.59721 -0.5534,0 -80.8047,0.0831 -80.8047,0.0831 -6.3221,0 -11.4407,5.11051 -11.4407,11.42593 0,6.31543 5.1186,11.42593 11.4407,11.42593 l 0,0.12465 c 0,0 11.9941,2.45138 26.7412,5.45675 l -8.8814,14.05736 -208.09179,0 c 5.39528,-16.1625 8.95063,-26.84056 8.95063,-26.84056 0.0692,-0.18004 0.083,-0.37394 0.12451,-0.55398 0.0553,-0.20775 0.11067,-0.40164 0.13834,-0.60938 0.0277,-0.1939 0.0138,-0.38779 0.0138,-0.59554 0.0138,-0.19389 0.0277,-0.38779 0.0138,-0.58168 -0.0138,-0.20775 -0.0553,-0.40164 -0.0968,-0.59554 -0.0277,-0.19389 -0.0415,-0.37393 -0.0968,-0.56783 -0.0553,-0.18004 -0.12451,-0.36009 -0.19368,-0.54013 -0.0692,-0.18005 -0.12451,-0.37394 -0.22134,-0.54014 -0.083,-0.18004 -0.19368,-0.33239 -0.29052,-0.49859 -0.0968,-0.16619 -0.19368,-0.33239 -0.31818,-0.49858 -0.11067,-0.15235 -0.24902,-0.27699 -0.38736,-0.42934 -0.13834,-0.1385 -0.24901,-0.29084 -0.40118,-0.42934 -0.15218,-0.12464 -0.31819,-0.23544 -0.48419,-0.34624 -0.15218,-0.12465 -0.30435,-0.24929 -0.4842,-0.34624 -0.16601,-0.1108 -0.35968,-0.18004 -0.55336,-0.26314 -0.17984,-0.0831 -0.33202,-0.18005 -0.52569,-0.24929 l -33.93492,-11.79988 10.16802,-26.67436 81.81451,-0.91407 24.2235,21.91009 c 2.4763,2.24364 6.3083,2.04974 8.5494,-0.42934 2.255,-2.47908 2.0613,-6.31542 -0.4288,-8.55906 l -25.9666,-23.5028 -1.7569,-1.59271 -2.3794,0.0277 -88.3166,0.98333 -4.12254,0.0415 -17.55541,46.06383 5.90714,2.04974 34.1701,11.88297 -30.73926,92.23845 c -13.5297,-5.27671 -28.05545,-8.07433 -43.01006,-8.07433 -65.144526,0 -118.142766,53.00248 -118.142766,118.15108 0,31.56327 12.28463,61.22915 34.59895,83.54088 22.32816,22.31173 51.988356,34.61019 83.543816,34.61019 31.55547,0 61.22951,-12.29846 83.54383,-34.61019 22.31432,-22.31173 34.5989,-51.97761 34.5989,-83.54088 0,-31.56328 -12.28458,-61.22916 -34.5989,-83.54089 -8.78462,-8.78066 -18.70364,-15.98246 -29.43886,-21.5223 2.86365,-8.58676 5.7688,-17.25662 8.59094,-25.73259 l 89.87982,95.95014 c -6.1977,7.63114 -9.9329,17.33972 -9.9329,27.92083 0,11.85527 4.6206,22.99036 13.004,31.38323 8.3835,8.37902 19.5199,12.99094 31.3757,12.99094 1.7707,0 3.5277,-0.1385 5.2569,-0.33239 l 2.2135,9.87477 -14.3875,0 0,13.84962 39.8283,0 0,-13.84962 -18.344,0 -2.5178,-11.21818 c 7.2352,-2.0359 13.8756,-5.85839 19.34,-11.31514 6.5297,-6.53702 10.7353,-14.74984 12.2847,-23.65515 l 20.0455,0.76173 c 0.4012,30.96775 12.6305,60.03809 34.5713,81.97588 22.3143,22.31173 51.9883,34.61019 83.5438,34.61019 31.5555,0 61.2157,-12.29846 83.5438,-34.61019 22.3144,-22.31173 34.599,-51.97761 34.599,-83.54088 0,-31.56328 -12.2846,-61.22916 -34.599,-83.54089 z m -383.54897,14.69444 c 18.38545,18.39229 28.51197,42.83687 28.51197,68.84645 0,53.69496 -43.67409,97.3628 -97.36404,97.3628 -26.00801,0 -50.452766,-10.12407 -68.838216,-28.51636 -18.39929,-18.39229 -28.52581,-42.83686 -28.52581,-68.84644 0,-26.00958 10.12652,-50.45416 28.52581,-68.84645 18.38545,-18.39229 42.830206,-28.51636 68.838216,-28.51636 12.68583,0 24.99813,2.42369 36.42506,7.03561 l -21.38744,64.16527 c -1.63242,4.41803 -8.00992,17.06273 -17.16806,20.48358 -3.12649,1.17722 -4.71741,4.66732 -3.54152,7.81119 1.1759,3.13001 4.67591,4.72272 7.80241,3.5455 16.28267,-6.10768 24.02974,-26.9652 24.34792,-27.85158 0.0277,-0.0554 9.504,-28.50251 20.95859,-62.87726 7.74707,4.34878 14.95461,9.75013 21.41511,16.20405 z m 246.09387,-36.23059 c -35.1385,18.10145 -60.0674,53.29332 -63.7473,94.52363 l -20.004,-0.76173 c -0.9961,-10.19332 -5.4506,-19.65261 -12.7827,-26.9929 -0.6917,-0.69248 -1.4387,-1.31572 -2.1719,-1.96665 l 74.6347,-118.34497 24.0712,53.54262 z m 8.508,18.90472 35.8578,79.74609 -87.3343,-3.3239 c 2.1996,-22.32558 11.9526,-43.03076 28.0278,-59.09632 7.0138,-7.02175 14.9131,-12.82474 23.4487,-17.32587 z m -145.0777,61.14606 -9.7807,-10.44261 c 2.1028,-1.37111 4.3577,-2.47908 6.7095,-3.33776 l 3.0712,13.78037 z m 3.6383,-15.48387 c 1.6463,-0.23544 3.3202,-0.40164 5.008,-0.40164 4.1364,0 8.1344,0.76173 11.8834,2.16054 l -12.1739,19.30637 -4.7175,-21.06527 z m 28.6089,9.1546 c 0.1383,0.13849 0.2905,0.24929 0.4427,0.40163 5.2707,5.26286 8.5632,11.97992 9.5731,19.23712 l -21.8855,-0.83098 11.8697,-18.80777 z M 223.49196,516.2189 l 203.96923,0 -73.0023,115.75509 c -5.4644,-2.35444 -11.3992,-3.6009 -17.5277,-3.6009 -2.4763,0 -4.8973,0.24929 -7.2767,0.65093 l -4.9388,-22.07629 15.6878,0 0,-13.86346 -39.8282,0 0,13.86346 17.0435,0 5.3123,23.72439 c -4.1779,1.38497 -8.0652,3.37931 -11.5929,5.88609 l -94.3759,-100.75596 c 2.28262,-6.85556 4.48223,-13.44797 6.52967,-19.58335 z m 113.43923,190.51532 c -9.0752,0 -17.6108,-3.53166 -24.0298,-9.95788 -6.419,-6.41237 -9.9605,-14.95758 -9.9605,-24.02908 0,-7.3957 2.3933,-14.41745 6.7372,-20.23429 l 22.84,24.37532 0.9822,1.05257 6.4052,28.64101 c -0.9822,0.0831 -1.9644,0.15235 -2.9743,0.15235 z m 9.7806,-1.45421 -5.8933,-26.31427 29.2867,1.10797 c -2.6561,12.03531 -11.7036,21.68849 -23.3934,25.2063 z m 172.0541,71.75486 c -26.008,0 -50.4666,-10.12407 -68.852,-28.51636 -17.8321,-17.82446 -27.8618,-41.3688 -28.4567,-66.49201 l 97.0735,3.69785 6.004,-0.85868 -0.249,-7.67268 -39.8697,-88.6514 c 10.832,-4.08564 22.425,-6.23233 34.3499,-6.23233 26.008,0 50.4528,10.12407 68.8382,28.51636 18.3993,18.39229 28.5259,42.83687 28.5259,68.84645 0,53.69496 -43.6741,97.3628 -97.3641,97.3628" />
        <path
           id="path145"
           style="fill:#000000;fill-rule:nonzero;stroke:none"
           d="m 562.24829,661.56237 c -41.7079,-55.26699 -59.4315,-111.57161 -59.4315,-111.57161 -3.9406,-23.64453 -12.0603,-47.28908 -15.7791,-57.4273 5.3221,0.0512 8.4781,0.068 8.4781,0.068 0,0 -3.4629,-16.68725 -17.0245,-55.26697 -13.5614,-38.59675 -20.5212,-67.7867 -16.3589,-79.77907 4.1793,-11.99238 2.4563,-37.5591 2.4563,-37.5591 24.5129,1.03765 40.8208,31.29925 40.8208,31.29925 -1.0405,7.29748 0.7507,60.99951 0,66.22174 -0.7334,5.2222 5.22,6.25983 5.22,6.25983 0,0 1.5865,0.11907 4.077,0.28918 0.4776,6.63408 1.0063,18.59244 -0.4265,27.86314 -2.0813,13.55734 -4.6911,21.89245 4.1793,18.76253 2.32,-0.81651 3.7529,-1.37784 4.5887,-1.78609 -0.2388,1.78609 -1.0064,6.20882 -3.0364,10.64853 -2.5929,5.74955 -3.1216,9.16865 1.0407,11.48207 4.1791,2.29641 19.5317,-2.87476 24.0011,-24.51207 4.4692,-21.62029 4.5546,-27.57395 0.9042,-33.30649 -2.4395,-3.82735 -5.0323,-5.59643 -5.5611,-7.43357 3.2752,0.18712 5.9876,0.28918 7.5057,0.28918 6.772,0 3.0706,-7.38254 2.0299,-18.33728 -1.0406,-10.95473 -1.2281,-66.86812 -1.2281,-66.86812 0,0 4.691,0 -10.9515,-20.85481 -15.6427,-20.85483 -68.3192,-67.78669 -90.2221,-80.8167 -7.6935,-4.59283 -13.5956,1.02063 -19.2932,-3.16394 -9.9109,-7.26347 -21.323,-7.31451 -21.323,-7.31451 l -2.9511,-4.01446 c 0,-1.03765 1.0575,-1.03765 2.0982,-1.03765 -1.0407,-6.25984 -5.2198,-12.51969 -4.1795,-18.77953 1.0406,-6.25986 4.1795,-12.5197 4.1795,-19.81719 0,-2.07528 3.1215,0 4.1622,-1.03763 2.0981,-5.20521 3.1388,-13.55733 -1.0407,-17.72489 -2.081,-1.05466 -6.3457,3.36805 -7.8808,1.61598 -4.8617,-5.56241 -2.5418,-21.43317 -11.9239,-22.4708 -17.7407,-1.05467 -51.7042,-2.38148 -54.2457,-1.05467 -2.5418,1.34384 -1.0406,37.54208 -17.7238,47.9695 -1.0406,1.05464 -4.1794,3.12992 -2.0811,4.18457 4.1621,2.07527 10.4226,0 13.5445,3.12992 1.0575,2.07528 -2.0814,5.20521 2.0981,7.29749 1.0403,1.03763 -1.0406,4.16756 -2.0981,5.2052 -1.0406,4.18457 -2.0814,10.42742 1.0575,13.55734 2.0809,3.12992 9.382,-1.03764 11.4633,3.12992 2.081,4.16756 3.1388,9.38977 5.2197,13.55734 1.0407,2.09228 6.2605,2.09228 10.4228,3.12992 2.0811,1.03764 1.0406,3.12993 1.0406,4.16756 -2.0811,3.12992 -6.2434,0 -7.3011,1.05465 0,-0.0171 -23.8476,17.79294 -39.4902,51.69479 -15.6425,33.88484 -23.4724,50.02776 -30.2446,56.81493 -6.7892,6.77016 -49.14537,36.36836 -49.14537,36.36836 0,0 -9.60386,9.33875 -6.58458,17.41872 -12.72558,4.32065 -41.50313,15.90478 -35.37915,31.02708 7.82978,19.28987 21.42549,15.88777 30.77332,9.90009 7.42036,-4.74591 15.57446,-19.74914 18.59385,-25.68579 3.82112,2.17733 8.13677,3.36806 12.69144,2.75569 11.46319,-1.56496 55.79819,-44.32927 55.79819,-44.32927 0,0 16.1543,-15.12229 31.7968,-23.45742 0,0 11.6168,85.57965 13.7832,98.60963 1.7058,10.13824 3.1559,19.93626 3.7018,23.78064 -10.1669,16.26199 -34.0487,56.83194 -52.2328,106.3664 -23.7286,64.65676 -52.33553,128.93928 -59.63654,146.66418 0,0 2.31999,1.36084 6.10687,3.50416 -4.29864,1.95619 -10.86609,3.70828 -20.69174,3.84436 -22.94375,0.3232 -41.72503,0.61237 -41.72503,0.61237 0,0 -5.21982,0.37423 -6.77222,4.55881 -1.56932,4.16756 1.5524,7.75677 1.5524,7.75677 l 40.87193,22.52185 25.87772,1.00361 0,10.42742 29.98881,6.36189 c 0,0 3.838,1.39487 4.8786,-3.82734 0.7506,-3.72529 6.0388,-21.72236 9.0069,-31.74152 6.3115,2.56859 12.1286,4.50779 16.6149,5.22223 0,0 17.0756,-50.35096 23.8989,-69.94703 6.8063,-19.59605 27.1229,-71.73311 35.8056,-90.00233 8.6998,-18.26923 36.2492,-54.9778 43.5502,-65.40522 0.1025,-0.1701 0.2048,-0.34022 0.2899,-0.51032 23.8478,25.71982 26.4406,43.37668 39.8146,70.47433 13.8174,27.94819 19.1564,33.73175 43.1577,68.14391 23.9842,34.41216 45.0172,68.46709 45.0172,68.46709 2.0299,-0.93557 3.9917,-1.87114 5.9194,-2.82373 -3.6336,12.00939 -11.7875,36.82764 -18.8326,42.30501 -9.3992,7.3145 -14.1755,9.50884 -14.1926,12.51971 0,3.01084 1.5524,4.33765 5.2028,4.01447 3.6506,-0.3232 41.1962,0.8165 41.1962,0.8165 0,0 15.6425,-15.63261 18.7643,-28.67964 0,0 5.6804,-4.67788 8.2904,-3.11291 2.5928,1.56496 1.8252,0.034 1.8252,0.034 l 6.5846,-7.85883 c 0,0 0.4775,-10.17225 -3.173,-15.37745 0,0 -2.7293,-14.91819 -11.6679,-25.82189 11.2244,-8.72635 16.6491,-15.17332 16.6491,-15.17332 0,0 4.9639,5.78354 -36.761,-49.48342" />
      </g>
    </g>
  </g>
</svg>
