<?xml version="1.0" encoding="UTF-8" standalone="no"?>
<svg
   version="1.1"
   id="Ebene_1"
   x="0px"
   y="0px"
   viewBox="0 0 86.82 86.82"
   style="enable-background:new 0 0 86.82 86.82;"
   xml:space="preserve"
   xmlns="http://www.w3.org/2000/svg"
   xmlns:svg="http://www.w3.org/2000/svg"><defs
   id="defs2" />&#10;    <circle
   style="fill:#FFFFFF;"
   cx="43.41"
   cy="43.41"
   r="43.41"
   id="circle1" />&#10;    &#10;    &#10;<path
   d="m 70.975254,20.147445 -9.70004,10.575626 c 2.630689,3.683107 4.071423,8.068541 4.071423,12.68725 0,5.858321 -2.281098,11.366905 -6.426683,15.512277 -4.142156,4.142155 -9.650741,6.426683 -15.508703,6.426683 -5.861535,0 -11.370478,-2.28467 -15.512276,-6.426683 -4.145729,-4.145729 -6.426684,-9.654314 -6.426684,-15.512277 0,-11.963489 9.63288,-21.7164 21.550643,-21.925026 L 54.421633,9.0520388 C 50.904569,7.9256008 47.207602,7.3041169 43.411608,7.3041169 23.503181,7.3041169 7.3057247,23.501573 7.3057247,43.41 c 0,9.643596 3.7538403,18.711685 10.5724113,25.530257 6.822143,6.818571 15.88666,10.575626 25.533829,10.575626 9.643597,0 18.711685,-3.757055 25.526684,-10.575626 C 75.760793,62.121685 79.514275,53.053596 79.514275,43.41 c 0,-8.619399 -3.029793,-16.758674 -8.538307,-23.263235 M 58.956035,9.5814988 V 9.5354178 L 33.860178,36.859356 H 50.68244 L 75.700777,9.5811418"
   fill="#e33c3e"
   id="path1"
   style="stroke-width:0.357237" /></svg>
