<?xml version="1.0" encoding="UTF-8" standalone="no"?>
<svg
   xmlns:dc="http://purl.org/dc/elements/1.1/"
   xmlns:cc="http://creativecommons.org/ns#"
   xmlns:rdf="http://www.w3.org/1999/02/22-rdf-syntax-ns#"
   xmlns:svg="http://www.w3.org/2000/svg"
   xmlns="http://www.w3.org/2000/svg"
   xml:space="preserve"
   style="enable-background:new 0 0 1562 1562;"
   viewBox="0 0 1562 1562"
   y="0px"
   x="0px"
   id="Ebene_1"
   version="1.1"><metadata
   id="metadata23"><rdf:RDF><cc:Work
       rdf:about=""><dc:format>image/svg+xml</dc:format><dc:type
         rdf:resource="http://purl.org/dc/dcmitype/StillImage" /><dc:title></dc:title></cc:Work></rdf:RDF></metadata><defs
   id="defs21" />
<style
   id="style2"
   type="text/css">
	.st0{fill:#FFFFFF;}
	.st1{fill:#0000FF;}
</style>
<g
   id="g8">
	<path
   id="path4"
   d="M330.3,1533.7c-80.7,0-156.5-31.4-213.5-88.4s-88.4-132.8-88.4-213.5V330.3c0-80.7,31.4-156.5,88.4-213.5   s132.8-88.4,213.5-88.4h901.5c80.7,0,156.5,31.4,213.5,88.4s88.4,132.8,88.4,213.5v901.5c0,80.7-31.4,156.5-88.4,213.5   s-132.8,88.4-213.5,88.4H330.3z"
   class="st0" />
	<path
   style="fill:#0000ff;fill-opacity:1"
   id="path6"
   d="M 1231.7,0 H 330.3 C 147.8,0 0,147.8 0,330.3 v 901.5 C 0,1414.2 147.8,1562 330.3,1562 h 901.5 c 182.4,0 330.3,-147.8 330.3,-330.3 V 330.3 C 1562,147.8 1414.2,0 1231.7,0 Z"
   class="st1" />
</g>

</svg>