<?xml version="1.0" encoding="UTF-8" standalone="no"?>
<svg
   xmlns:dc="http://purl.org/dc/elements/1.1/"
   xmlns:cc="http://creativecommons.org/ns#"
   xmlns:rdf="http://www.w3.org/1999/02/22-rdf-syntax-ns#"
   xmlns:svg="http://www.w3.org/2000/svg"
   xmlns="http://www.w3.org/2000/svg"
   id="svg2"
   version="1.1"
   height="702.5"
   width="702.5">
  <metadata
     id="metadata14">
    <rdf:RDF>
      <cc:Work
         rdf:about="">
        <dc:format>image/svg+xml</dc:format>
        <dc:type
           rdf:resource="http://purl.org/dc/dcmitype/StillImage" />
        <dc:title></dc:title>
      </cc:Work>
    </rdf:RDF>
  </metadata>
  <defs
     id="defs12" />
  <circle
     id="OuterCircle"
     cy="351.25"
     cx="351.25"
     r="350"
     style="fill:#ffffff;stroke:#000000;stroke-width:2.5px" />
  <circle
     id="RedCircle"
     style="fill:none;stroke:#cc0000;stroke-width:93.75"
     r="290"
     cy="351.25"
     cx="351.25" />
  <g
     id="g4169"
     transform="matrix(0.81184503,0,0,0.81184503,144.95632,238.58154)">
    <circle
       cy="200.55"
       cx="76.181"
       stroke-miterlimit="10"
       r="69.094002"
       id="circle3"
       style="fill:none;stroke:#000000;stroke-width:14.17300034;stroke-miterlimit:10" />
    <circle
       cy="200.55"
       cx="76.181"
       r="7.8099999"
       id="circle5" />
    <line
       y2="200.55"
       y1="54.310001"
       stroke-miterlimit="10"
       x2="190.99001"
       x1="117.99"
       id="line7"
       style="fill:none;stroke:#000000;stroke-width:11.33899975;stroke-miterlimit:10" />
    <line
       y2="200.55"
       y1="200.55"
       stroke-miterlimit="10"
       x2="393.84"
       x1="81.344002"
       id="line9"
       style="fill:none;stroke:#000000;stroke-width:11.33899975;stroke-linecap:round;stroke-miterlimit:10" />
    <line
       y2="200.55"
       y1="131.46001"
       stroke-miterlimit="10"
       x2="77.606003"
       x1="152.02"
       id="line11"
       style="fill:none;stroke:#000000;stroke-width:11.33899975;stroke-miterlimit:10" />
    <path
       stroke-miterlimit="10"
       d="M 185.28,209.81"
       id="path13"
       style="fill:none;stroke:#000000;stroke-width:11.33899975;stroke-miterlimit:10" />
    <path
       stroke-miterlimit="10"
       d="M 210.28,171.86"
       id="path15"
       style="fill:none;stroke:#000000;stroke-width:11.33899975;stroke-miterlimit:10" />
    <g
       stroke-miterlimit="10"
       id="g17"
       style="fill:none;stroke:#000000;stroke-width:11.33899975;stroke-miterlimit:10">
      <line
         x2="215.88"
         y1="238.2"
         x1="166.27"
         y2="162.89999"
         id="line19" />
      <line
         x2="227.66"
         y1="162.89999"
         x1="203.77"
         y2="162.89999"
         id="line21"
         style="stroke-linecap:round" />
      <line
         x2="178.22"
         y1="238.2"
         x1="154.32001"
         y2="238.2"
         id="line23"
         style="stroke-linecap:round" />
    </g>
    <line
       y2="54.310001"
       y1="54.310001"
       stroke-miterlimit="10"
       x2="141.05"
       x1="100.78"
       id="line25"
       style="fill:none;stroke:#000000;stroke-width:17.00799942;stroke-linecap:round;stroke-miterlimit:10" />
    <path
       d="m 502.54,195.81 -240,-0.919 c 4.875,0 4.331,-1.619 4.331,-4.75 l 0,-140 c 0,-1.565 0.647,-3.062 1.788,-4.133 1.142,-1.071 2.665,-1.625 4.237,-1.525 l 230,14.5 c 2.987,0.188 5.313,2.666 5.313,5.658 l 0,125.5 c -0.01,3.13 -2.54,5.67 -5.67,5.67 z"
       id="path27" />
    <circle
       cy="207.97"
       cx="394.62"
       stroke-miterlimit="10"
       r="62.505001"
       id="circle29"
       style="fill:#ffffff;stroke:#000000;stroke-width:14.17300034;stroke-miterlimit:10" />
    <circle
       cy="207.97"
       cx="394.62"
       r="11.31"
       id="circle31" />
    <polyline
       points="271.28 50.31 260.42 27.81 228.28 6.31"
       stroke-miterlimit="10"
       id="polyline33"
       style="fill:none;stroke:#000000;stroke-width:8.50389957;stroke-linecap:round;stroke-linejoin:round;stroke-miterlimit:10" />
    <circle
       cy="6.3099999"
       cx="228.28"
       r="6.3099999"
       id="circle35" />
  </g>
</svg>
