<?xml version="1.0" encoding="utf-8"?>
<!-- source: https://svgsilh.com/de/image/2027088.html -->
<svg version="1.1" id="Ebene_1" xmlns="http://www.w3.org/2000/svg" xmlns:xlink="http://www.w3.org/1999/xlink" x="0px" y="0px"
	 viewBox="0 0 1562 1562" style="enable-background:new 0 0 1562 1562;" xml:space="preserve">
<style type="text/css">
	.st0{fill:#FFFFFF;}
	.st1{fill:#0000FF;}
</style>
<g>
	<path class="st0" d="M330.3,1533.7c-80.7,0-156.5-31.4-213.5-88.4s-88.4-132.8-88.4-213.5V330.3c0-80.7,31.4-156.5,88.4-213.5
		s132.8-88.4,213.5-88.4h901.5c80.7,0,156.5,31.4,213.5,88.4s88.4,132.8,88.4,213.5v901.5c0,80.7-31.4,156.5-88.4,213.5
		s-132.8,88.4-213.5,88.4H330.3z"/>
	<path class="st1" d="M1231.7,56.7c37,0,72.8,7.2,106.5,21.5c32.6,13.8,61.8,33.5,87,58.6c25.1,25.1,44.9,54.4,58.6,87
		c14.2,33.7,21.5,69.5,21.5,106.5v901.5c0,37-7.2,72.8-21.5,106.5c-13.8,32.6-33.5,61.8-58.6,87c-25.1,25.1-54.4,44.9-87,58.6
		c-33.7,14.2-69.5,21.5-106.5,21.5H330.3c-37,0-72.8-7.2-106.5-21.5c-32.6-13.8-61.8-33.5-87-58.6c-25.1-25.1-44.9-54.4-58.6-87
		c-14.2-33.7-21.5-69.5-21.5-106.5V330.3c0-37,7.2-72.8,21.5-106.5c13.8-32.6,33.5-61.8,58.6-87c25.1-25.1,54.4-44.9,87-58.6
		c33.7-14.2,69.5-21.5,106.5-21.5H1231.7 M1231.7,0H330.3C147.8,0,0,147.8,0,330.3v901.5C0,1414.2,147.8,1562,330.3,1562h901.5
		c182.4,0,330.3-147.8,330.3-330.3V330.3C1562,147.8,1414.2,0,1231.7,0L1231.7,0z"/>
</g>
<g transform="translate(0.000000,938.000000) scale(0.100000,-0.100000)">
	<path class="st1" d="M10025.3,6639.6c-130-37-321-129-1515-732c-693-350-1354-683-1468-741c-115-57-232-122-260-143
		c-249-186-358-635-220-903c16-29,216-326,447-659c230-333,418-609,418-613c0-7-967-504-2709-1392c-365-185-663-340-663-343
		c0-4,382-293,849-643l848-637l1068,641l1067,640l1066-640l1067-640l427,427c263,263,424,431,419,438c-5,5-576,768-1271,1695
		s-1266,1690-1271,1696s390,248,1104,673c612,365,1130,675,1152,689c72,45,135,103,180,166c92,130,115,223,115,475
		c0,170-1,179-26,229c-52,105-213,222-378,277C10324.3,6647.6,10120.3,6665.6,10025.3,6639.6z"/>
	<path class="st1" d="M11710.3,4078.6c-208-32-436-123-617-245c-124-84-305-266-387-389c-118-177-188-343-232-550
		c-33-152-33-430,0-580c61-287,187-530,379-732c218-228,457-364,775-440c80-19,120-22,312-22c191,0,232,3,310,21
		c322,78,564,216,779,444c195,207,321,454,378,742c29,145,31,395,5,532c-125,644-619,1126-1251,1220
		C12036.3,4097.6,11832.3,4097.6,11710.3,4078.6z"/>
	<path class="st1" d="M2552.3-806.4l-1067-640v-639v-639l583,349c320,191,800,479,1067,639c439,264,486,289,505,277
		c11-7,491-295,1066-640l1046-627l1067,641l1068,640l1066-640c637-382,1070-636,1076-631c6,4,390,292,853,640l843,631l1280-640
		l1280-640v640v640l-1279,639l-1279,640l-852-639c-469-352-855-638-859-636c-16,9-1489,890-1788,1069l-341,205l-1068-639l-1068-640
		l-1045,627c-575,345-1055,633-1066,640C3621.3-167.4,3523.3-223.4,2552.3-806.4z"/>
</g>
</svg>
