<?xml version="1.0" encoding="UTF-8" standalone="no"?>
<svg
   viewBox="0 0 99.999982 99.999982"
   height="99.999985"
   width="99.999985"
   xml:space="preserve"
   id="svg4851"
   version="1.1"
   xmlns="http://www.w3.org/2000/svg"
   xmlns:svg="http://www.w3.org/2000/svg"
   xmlns:rdf="http://www.w3.org/1999/02/22-rdf-syntax-ns#"
   xmlns:cc="http://creativecommons.org/ns#"
   xmlns:dc="http://purl.org/dc/elements/1.1/"><metadata
     id="metadata4857"><rdf:RDF><cc:Work
         rdf:about=""><dc:format>image/svg+xml</dc:format><dc:type
           rdf:resource="http://purl.org/dc/dcmitype/StillImage" /></cc:Work></rdf:RDF></metadata><defs
     id="defs4855" /><g
     transform="matrix(1.3333333,0,0,-1.3333333,-250.49733,350.49732)"
     id="g4859"><g
       id="g4861"><path
         id="path4863"
         style="fill:#ffffff;fill-opacity:1;fill-rule:nonzero;stroke:none;stroke-width:0.165801"
         d="m 262.67846,225.37267 c 0,-20.60321 -16.70175,-37.30513 -37.30513,-37.30513 -20.60337,0 -37.30513,16.70192 -37.30513,37.30513 0,20.60337 16.70176,37.30513 37.30513,37.30513 20.60338,0 37.30513,-16.70176 37.30513,-37.30513 z" /><path
         id="path4865"
         style="fill:#000000;fill-opacity:1;fill-rule:nonzero;stroke:#000000;stroke-width:0.266053;stroke-dasharray:none;stroke-opacity:1"
         d="m 225.37333,262.73997 c -20.63703,0 -37.3673,-16.73027 -37.3673,-37.3673 0,-20.63637 16.73027,-37.36664 37.3673,-37.36664 20.63637,0 37.36664,16.73027 37.36664,37.36664 0,20.63703 -16.73027,37.3673 -37.36664,37.3673 z m 0,-0.0622 c 20.60338,0 37.30513,-16.70176 37.30513,-37.30513 0,-20.60321 -16.70175,-37.30513 -37.30513,-37.30513 -20.60337,0 -37.30513,16.70192 -37.30513,37.30513 0,20.60337 16.70176,37.30513 37.30513,37.30513 z" /><path
         id="path4867"
         style="fill:#cc0000;fill-opacity:1;fill-rule:nonzero;stroke:none;stroke-width:0.165801"
         d="m 225.37333,261.43429 c -19.85727,0 -36.06162,-16.20435 -36.06162,-36.06162 0,-19.85645 16.20435,-36.06163 36.06162,-36.06163 19.85661,0 36.06163,16.20518 36.06163,36.06163 0,19.85727 -16.20502,36.06162 -36.06163,36.06162 z m 0,-9.99793 c 14.45383,0 26.06369,-11.6092 26.06369,-26.06369 0,-14.45383 -11.60986,-26.06369 -26.06369,-26.06369 -14.45449,0 -26.06369,11.60986 -26.06369,26.06369 0,14.45449 11.6092,26.06369 26.06369,26.06369 z" /><path
         id="path4869"
         style="fill:#000000;fill-opacity:1;fill-rule:nonzero;stroke:none;stroke-width:0.165801"
         d="m 191.71068,258.96552 v -0.004 h -0.004 z" /><path
         id="path4871"
         style="fill:#000000;fill-opacity:1;fill-rule:nonzero;stroke:none;stroke-width:0.165801"
         d="m 191.70669,258.96552 h 0.004 v -0.004 h -0.004 z" /><path
         id="path4873"
         style="fill:#000000;fill-opacity:1;fill-rule:nonzero;stroke:none;stroke-width:0.165801"
         d="m 191.70669,258.96155 v 0.004 l 0.004,-0.004 z m 0.004,0 -0.004,0.004 v -0.004 z" /><path
         id="path4875"
         style="fill:#000000;fill-opacity:1;fill-rule:nonzero;stroke:none;stroke-width:0.165801"
         d="m 191.71448,258.96155 h -0.008 0.004 v 0.004 z" /><path
         id="path4877"
         style="fill:#000000;fill-opacity:1;fill-rule:nonzero;stroke:none;stroke-width:0.165801"
         d="m 191.70669,258.96155 v 0.004 -0.004 l 0.004,0.004 z" /><path
         id="path4879"
         style="fill:#000000;fill-opacity:1;fill-rule:nonzero;stroke:none;stroke-width:0.165801"
         d="m 191.70669,258.96552 h 0.004 v -0.004 h -0.004 z" /><path
         id="path4881"
         style="fill:#000000;fill-opacity:1;fill-rule:nonzero;stroke:none;stroke-width:0.165801"
         d="m 191.71448,258.96552 v -0.008 h -0.008 z" /><path
         id="path4883"
         style="fill:#000000;fill-opacity:1;fill-rule:nonzero;stroke:none;stroke-width:0.165801"
         d="m 191.70669,258.96552 h 0.008 v -0.008 h -0.008 z" /><path
         id="path4885"
         style="fill:#000000;fill-opacity:1;fill-rule:nonzero;stroke:none;stroke-width:0.165801"
         d="m 191.70669,258.95773 v 0.008 l 0.008,-0.008 z m 0.008,0 -0.008,0.008 v -0.008 z" /><path
         id="path4887"
         style="fill:#000000;fill-opacity:1;fill-rule:nonzero;stroke:none;stroke-width:0.165801"
         d="m 191.71448,258.95773 h -0.008 0.004 v 0.008 z" /><path
         id="path4889"
         style="fill:#000000;fill-opacity:1;fill-rule:nonzero;stroke:none;stroke-width:0.165801"
         d="m 191.70669,258.95773 v 0.008 -0.008 l 0.008,0.008 z" /><path
         id="path4891"
         style="fill:#000000;fill-opacity:1;fill-rule:nonzero;stroke:none;stroke-width:0.165801"
         d="m 191.70669,258.96552 h 0.008 v -0.008 h -0.008 z" /><path
         id="path4893"
         style="fill:#000000;fill-opacity:1;fill-rule:nonzero;stroke:none;stroke-width:0.165801"
         d="m 191.71448,258.96552 v -0.008 h -0.008 z" /><path
         id="path4895"
         style="fill:#000000;fill-opacity:1;fill-rule:nonzero;stroke:none;stroke-width:0.165801"
         d="m 191.70669,258.96552 h 0.008 v -0.008 h -0.008 z" /><path
         id="path4897"
         style="fill:#000000;fill-opacity:1;fill-rule:nonzero;stroke:none;stroke-width:0.165801"
         d="m 191.70669,258.95773 v 0.008 l 0.008,-0.008 z m 0.008,0 -0.008,0.008 v -0.008 z" /><path
         id="path4899"
         style="fill:#000000;fill-opacity:1;fill-rule:nonzero;stroke:none;stroke-width:0.165801"
         d="m 191.71448,258.95773 h -0.008 0.004 v 0.008 z" /><path
         id="path4901"
         style="fill:#000000;fill-opacity:1;fill-rule:nonzero;stroke:none;stroke-width:0.165801"
         d="m 191.70669,258.95773 v 0.008 -0.008 l 0.008,0.008 z" /><path
         id="path4903"
         style="fill:#000000;fill-opacity:1;fill-rule:nonzero;stroke:none;stroke-width:0.165801"
         d="m 191.70669,258.96552 h 0.008 v -0.008 h -0.008 z" /><path
         id="path4905"
         style="fill:#000000;fill-opacity:1;fill-rule:nonzero;stroke:none;stroke-width:0.165801"
         d="m 191.71448,258.96552 v -0.008 h -0.008 z" /><path
         id="path4907"
         style="fill:#000000;fill-opacity:1;fill-rule:nonzero;stroke:none;stroke-width:0.165801"
         d="m 191.70669,258.96552 h 0.008 v -0.008 h -0.008 z" /><path
         id="path4909"
         style="fill:#000000;fill-opacity:1;fill-rule:nonzero;stroke:none;stroke-width:0.165801"
         d="m 191.70669,258.95773 v 0.008 l 0.008,-0.008 z m 0.008,0 -0.008,0.008 v -0.008 z" /><path
         id="path4911"
         style="fill:#000000;fill-opacity:1;fill-rule:nonzero;stroke:none;stroke-width:0.165801"
         d="m 191.71448,258.95773 h -0.008 0.004 v 0.008 z" /><path
         id="path4913"
         style="fill:#000000;fill-opacity:1;fill-rule:nonzero;stroke:none;stroke-width:0.165801"
         d="m 191.70669,258.95773 v 0.008 -0.008 l 0.008,0.008 z" /><path
         id="path4915"
         style="fill:#000000;fill-opacity:1;fill-rule:nonzero;stroke:none;stroke-width:0.165801"
         d="m 191.70669,258.96552 h 0.008 v -0.008 h -0.008 z" /><path
         id="path4917"
         style="fill:#000000;fill-opacity:1;fill-rule:nonzero;stroke:none;stroke-width:0.165801"
         d="m 209.06784,236.02154 -4.37945,-3.22017 v 4.63727 l 4.37945,3.22018 h 4.37946 v -30.57214 h -4.37946 z" /><path
         id="path4919"
         style="fill:#000000;fill-opacity:1;fill-rule:nonzero;stroke:none;stroke-width:0.165801"
         d="m 216.69981,234.34662 c 0,1.03112 0.17176,1.94683 0.51497,2.74798 0.37239,0.80182 0.85885,1.48906 1.45988,2.06157 0.60168,0.5725 1.2881,1.00194 2.0614,1.28827 0.80115,0.31469 1.63147,0.47204 2.49032,0.47204 0.85869,0 1.67475,-0.15735 2.44755,-0.47204 0.80164,-0.28633 1.50315,-0.71577 2.10418,-1.28827 0.60102,-0.57251 1.07322,-1.25975 1.41709,-2.06157 0.37173,-0.80115 0.55759,-1.71686 0.55759,-2.74798 v -17.94791 c 0,-1.03111 -0.18586,-1.94683 -0.55759,-2.74798 -0.34387,-0.8018 -0.81607,-1.48889 -1.41709,-2.06156 -0.60103,-0.57251 -1.30254,-1.01602 -2.10418,-1.33088 -0.7728,-0.28617 -1.58886,-0.42942 -2.44755,-0.42942 -0.85885,0 -1.68917,0.14325 -2.49032,0.42942 -0.7733,0.31486 -1.45972,0.75837 -2.0614,1.33088 -0.60103,0.57267 -1.08749,1.25976 -1.45988,2.06156 -0.34321,0.80115 -0.51497,1.71687 -0.51497,2.74798 z m 4.37962,-17.94791 c 0,-0.63021 0.20078,-1.15927 0.60103,-1.5887 0.4009,-0.40091 0.91637,-0.60169 1.54592,-0.60169 0.62954,0 1.14502,0.20078 1.54593,0.60169 0.4009,0.42943 0.60102,0.95849 0.60102,1.5887 v 17.94791 c 0,0.63021 -0.20012,1.14503 -0.60102,1.54593 -0.40091,0.42942 -0.91639,0.64447 -1.54593,0.64447 -0.62955,0 -1.14502,-0.21505 -1.54592,-0.64447 -0.40025,-0.4009 -0.60103,-0.91572 -0.60103,-1.54593 z" /><path
         id="path4921"
         style="fill:#000000;fill-opacity:1;fill-rule:nonzero;stroke:none;stroke-width:0.165801"
         d="m 233.0053,234.34662 c 0,1.03112 0.1716,1.94683 0.51498,2.74798 0.37238,0.80182 0.85868,1.48906 1.4597,2.06157 0.6017,0.5725 1.28827,1.00194 2.06157,1.28827 0.80115,0.31469 1.63147,0.47204 2.49032,0.47204 0.85869,0 1.67475,-0.15735 2.44738,-0.47204 0.80182,-0.28633 1.50332,-0.71577 2.10435,-1.28827 0.60102,-0.57251 1.07306,-1.25975 1.4171,-2.06157 0.37172,-0.80115 0.55758,-1.71686 0.55758,-2.74798 v -17.94791 c 0,-1.03111 -0.18586,-1.94683 -0.55758,-2.74798 -0.34404,-0.8018 -0.81608,-1.48889 -1.4171,-2.06156 -0.60103,-0.57251 -1.30253,-1.01602 -2.10435,-1.33088 -0.77263,-0.28617 -1.58869,-0.42942 -2.44738,-0.42942 -0.85885,0 -1.68917,0.14325 -2.49032,0.42942 -0.7733,0.31486 -1.45987,0.75837 -2.06157,1.33088 -0.60102,0.57267 -1.08732,1.25976 -1.4597,2.06156 -0.34338,0.80115 -0.51498,1.71687 -0.51498,2.74798 z m 4.37946,-17.94791 c 0,-0.63021 0.20078,-1.15927 0.60102,-1.5887 0.40091,-0.40091 0.91655,-0.60169 1.54609,-0.60169 0.62938,0 1.14502,0.20078 1.54593,0.60169 0.4009,0.42943 0.60102,0.95849 0.60102,1.5887 v 17.94791 c 0,0.63021 -0.20012,1.14503 -0.60102,1.54593 -0.40091,0.42942 -0.91655,0.64447 -1.54593,0.64447 -0.62954,0 -1.14518,-0.21505 -1.54609,-0.64447 -0.40024,-0.4009 -0.60102,-0.91572 -0.60102,-1.54593 z" /></g></g></svg>
