<?xml version="1.0" encoding="UTF-8" standalone="no"?>
<svg
   xml:space="preserve"
   viewBox="0 0 100 99.993599"
   y="0px"
   x="0px"
   id="Ebene_1"
   version="1.1"
   width="100"
   height="99.993599"
   xmlns="http://www.w3.org/2000/svg"
   xmlns:svg="http://www.w3.org/2000/svg"
   xmlns:rdf="http://www.w3.org/1999/02/22-rdf-syntax-ns#"
   xmlns:cc="http://creativecommons.org/ns#"
   xmlns:dc="http://purl.org/dc/elements/1.1/">
   <metadata
   id="metadata23">
      <rdf:RDF>
         <cc:Work
   rdf:about="">
            <dc:format>image/svg+xml</dc:format>
            <dc:type
   rdf:resource="http://purl.org/dc/dcmitype/StillImage" />
            
         </cc:Work>
      </rdf:RDF>
   </metadata>
   <defs
   id="defs21" />
   <style
   id="style2"
   type="text/css"> .st0{fill:#FFFFFF;} .st1{fill:#0000FF;} </style>
   <g
   id="g8"
   transform="scale(0.06401639)">
      <path
   id="path4"
   d="m 330.3,1533.7 c -80.7,0 -156.5,-31.4 -213.5,-88.4 -57,-57 -88.4,-132.8 -88.4,-213.5 V 330.3 c 0,-80.7 31.4,-156.5 88.4,-213.5 57,-57 132.8,-88.4 213.5,-88.4 h 901.5 c 80.7,0 156.5,31.4 213.5,88.4 57,57 88.4,132.8 88.4,213.5 v 901.5 c 0,80.7 -31.4,156.5 -88.4,213.5 -57,57 -132.8,88.4 -213.5,88.4 z"
   class="st0" />
      <path
   style="fill:#0000ff;fill-opacity:1"
   id="path6"
   d="M 1231.7,0 H 330.3 C 147.8,0 0,147.8 0,330.3 v 901.5 C 0,1414.2 147.8,1562 330.3,1562 h 901.5 c 182.4,0 330.3,-147.8 330.3,-330.3 V 330.3 C 1562,147.8 1414.2,0 1231.7,0 Z"
   class="st1" />
   </g>
</svg>
