<?xml version="1.0" encoding="UTF-8" standalone="no"?>
<svg
   width="100"
   height="100"
   version="1.1"
   id="svg1"
   xmlns="http://www.w3.org/2000/svg"
   xmlns:svg="http://www.w3.org/2000/svg">
  <defs
     id="defs1" />
  <circle
     cx="50"
     cy="50"
     r="50"
     fill="#0081c9"
     id="circle1"
     style="stroke-width:0.25" />
  <path
     d="M 43.1875,91.195 C 34.02575,88.38075 24.39875,83.448 20.12125,74.385 16.2335,66.3875 17.3365,57.217 17.05775,48.62 17.042141,38.36625 17.043526,28.1125 17.04313,17.8575 c 7.423,-0.0084 14.84575,-0.01672 22.26875,-0.02508 0.03632,14.352 -0.07295,28.71 0.0552,43.0575 0.4467,6.49925 7.66025,11.26075 13.81375,9.1165 4.92175,-1.41295 8.03975,-6.594 7.511,-11.59825 3e-6,-13.52525 3e-6,-27.05 5e-6,-40.575 7.423,0.0084 14.84575,0.01672 22.26875,0.02508 -0.08934,14.72725 0.20095,29.4625 -0.24265,44.185 -0.11044,8.20525 -3.60225,16.51625 -10.29525,21.48675 -5.60375,4.04725 -12.0755,7.2495 -18.95475,8.3095 -3.419,0.285375 -6.93,0.124005 -10.2805,-0.64305 z"
     fill="#ffffff"
     id="path1"
     style="stroke-width:0.25" />
</svg>
