<?xml version="1.0" encoding="UTF-8" standalone="no"?>
<!-- source: https://svgsilh.com/de/image/2027088.html -->

<svg
   version="1.1"
   id="Ebene_1"
   x="0px"
   y="0px"
   viewBox="0 0 100 99.993599"
   xml:space="preserve"
   width="100"
   height="99.993599"
   xmlns="http://www.w3.org/2000/svg"
   xmlns:svg="http://www.w3.org/2000/svg"><defs
   id="defs5" />
	<style
   type="text/css"
   id="style1"> .st0{fill:#FFFFFF;} .st1{fill:#0000FF;} </style>
	<g
   id="g2"
   transform="scale(0.06401639)">
		<path
   class="st0"
   d="m 330.3,1533.7 c -80.7,0 -156.5,-31.4 -213.5,-88.4 -57,-57 -88.4,-132.8 -88.4,-213.5 V 330.3 c 0,-80.7 31.4,-156.5 88.4,-213.5 57,-57 132.8,-88.4 213.5,-88.4 h 901.5 c 80.7,0 156.5,31.4 213.5,88.4 57,57 88.4,132.8 88.4,213.5 v 901.5 c 0,80.7 -31.4,156.5 -88.4,213.5 -57,57 -132.8,88.4 -213.5,88.4 z"
   id="path1" />
		<path
   class="st1"
   d="m 1231.7,56.7 c 37,0 72.8,7.2 106.5,21.5 32.6,13.8 61.8,33.5 87,58.6 25.1,25.1 44.9,54.4 58.6,87 14.2,33.7 21.5,69.5 21.5,106.5 v 901.5 c 0,37 -7.2,72.8 -21.5,106.5 -13.8,32.6 -33.5,61.8 -58.6,87 -25.1,25.1 -54.4,44.9 -87,58.6 -33.7,14.2 -69.5,21.5 -106.5,21.5 H 330.3 c -37,0 -72.8,-7.2 -106.5,-21.5 -32.6,-13.8 -61.8,-33.5 -87,-58.6 -25.1,-25.1 -44.9,-54.4 -58.6,-87 C 64,1304.6 56.7,1268.8 56.7,1231.8 V 330.3 c 0,-37 7.2,-72.8 21.5,-106.5 13.8,-32.6 33.5,-61.8 58.6,-87 25.1,-25.1 54.4,-44.9 87,-58.6 C 257.5,64 293.3,56.7 330.3,56.7 h 901.4 m 0,-56.7 H 330.3 C 147.8,0 0,147.8 0,330.3 v 901.5 C 0,1414.2 147.8,1562 330.3,1562 h 901.5 c 182.4,0 330.3,-147.8 330.3,-330.3 V 330.3 C 1562,147.8 1414.2,0 1231.7,0 Z"
   id="path2" />
	</g>
	<g
   transform="matrix(0.00640164,0,0,-0.00640164,0,60.047372)"
   id="g5">
		<path
   class="st1"
   d="m 10025.3,6639.6 c -130,-37 -321,-129 -1515,-732 -693,-350 -1354,-683 -1468,-741 -115,-57 -232,-122 -260,-143 -249,-186 -358,-635 -220,-903 16,-29 216,-326 447,-659 230,-333 418,-609 418,-613 0,-7 -967,-504 -2709,-1392 -365,-185 -663,-340 -663,-343 0,-4 382,-293 849,-643 l 848,-637 1068,641 1067,640 1066,-640 1067,-640 427,427 c 263,263 424,431 419,438 -5,5 -576,768 -1271,1695 -695,927 -1266,1690 -1271,1696 -5,6 390,248 1104,673 612,365 1130,675 1152,689 72,45 135,103 180,166 92,130 115,223 115,475 0,170 -1,179 -26,229 -52,105 -213,222 -378,277 -147,48 -351,66 -446,40 z"
   id="path3" />
		<path
   class="st1"
   d="m 11710.3,4078.6 c -208,-32 -436,-123 -617,-245 -124,-84 -305,-266 -387,-389 -118,-177 -188,-343 -232,-550 -33,-152 -33,-430 0,-580 61,-287 187,-530 379,-732 218,-228 457,-364 775,-440 80,-19 120,-22 312,-22 191,0 232,3 310,21 322,78 564,216 779,444 195,207 321,454 378,742 29,145 31,395 5,532 -125,644 -619,1126 -1251,1220 -125,18 -329,18 -451,-1 z"
   id="path4" />
		<path
   class="st1"
   d="m 2552.3,-806.4 -1067,-640 v -639 -639 l 583,349 c 320,191 800,479 1067,639 439,264 486,289 505,277 11,-7 491,-295 1066,-640 l 1046,-627 1067,641 1068,640 1066,-640 c 637,-382 1070,-636 1076,-631 6,4 390,292 853,640 l 843,631 1280,-640 1280,-640 v 640 640 l -1279,639 -1279,640 -852,-639 c -469,-352 -855,-638 -859,-636 -16,9 -1489,890 -1788,1069 l -341,205 -1068,-639 -1068,-640 -1045,627 c -575,345 -1055,633 -1066,640 -19,12 -117,-44 -1088,-627 z"
   id="path5" />
	</g>
</svg>
